<?xml version="1.0" encoding="UTF-8"?> <svg xmlns="http://www.w3.org/2000/svg" id="Layer_1" data-name="Layer 1" viewBox="0 0 220 74.33"><defs><style>.cls-1{fill:#fff;}.cls-10,.cls-2{fill:#ff7c00;}.cls-3{fill:#e84e1a;}.cls-4{fill:#f29100;}.cls-5{fill:#e84e1b;}.cls-6{fill:#fd5900;}.cls-7{fill:#f8b133;}.cls-8{fill:#fd6c0b;}.cls-9{fill:#febc00;}.cls-10{font-size:33.19px;font-family:DINAlternate-Bold, DIN Alternate;font-weight:700;}</style></defs><path class="cls-1" d="M70.36,30.64H89.29a13,13,0,0,0-1.39-4.1,11.29,11.29,0,0,0-2.63-3.28,12.59,12.59,0,0,0-3.6-2.16,11.61,11.61,0,0,0-8.42,0,13,13,0,0,0-3.57,2.16,11.1,11.1,0,0,0-2.62,3.28,12.75,12.75,0,0,0-1.39,4.1,11.07,11.07,0,0,0,0,3,12.5,12.5,0,0,0,1.39,4.14A11.32,11.32,0,0,0,69.68,41a13,13,0,0,0,3.57,2.16,11.25,11.25,0,0,0,4.23.8,11.42,11.42,0,0,0,6.67-2A11.63,11.63,0,0,0,88,37.39a1.53,1.53,0,0,1,1.35-.85h0a1.5,1.5,0,0,1,1.33,2.2,14.57,14.57,0,0,1-1.21,1.94,15,15,0,0,1-3.25,3.25,15.85,15.85,0,0,1-4.1,2.15,13.83,13.83,0,0,1-4.66.8,14.58,14.58,0,0,1-13.61-9,15.08,15.08,0,0,1,0-11.6A14.88,14.88,0,0,1,88,21.63a14.85,14.85,0,0,1,4.28,10.49v1.47H70.36a1.47,1.47,0,0,1-1.47-1.45h0A1.47,1.47,0,0,1,70.36,30.64Z"></path><path class="cls-1" d="M110.54,17.35a13.76,13.76,0,0,1,5.67,1.19,15.37,15.37,0,0,1,7.91,7.91,13.75,13.75,0,0,1,1.18,5.67V45.4a1.47,1.47,0,0,1-1.47,1.48h0a1.48,1.48,0,0,1-1.48-1.48V32.12a11.28,11.28,0,0,0-.94-4.58,12,12,0,0,0-6.29-6.29,11.6,11.6,0,0,0-9.15,0,12,12,0,0,0-6.29,6.29,11.28,11.28,0,0,0-1,4.58V46.88h-3V32.12a14.22,14.22,0,0,1,1.15-5.67,15.64,15.64,0,0,1,3.13-4.7,14.68,14.68,0,0,1,4.67-3.21A14.24,14.24,0,0,1,110.54,17.35Z"></path><polygon class="cls-2" points="131.8 12.9 131.8 14.15 128.85 17.07 128.85 12.9 131.8 12.9"></polygon><path class="cls-1" d="M128.85,45.4V18.89l3-3V45.4a1.48,1.48,0,0,1-1.48,1.48h0A1.47,1.47,0,0,1,128.85,45.4Z"></path><path class="cls-3" d="M20.27,28.69a24,24,0,0,1,2.14-2.34A19.26,19.26,0,0,1,35,9.17,23.22,23.22,0,0,0,15.68,47.54,23.18,23.18,0,0,1,20.27,28.69Z"></path><path class="cls-4" d="M59.72,33.76a19.25,19.25,0,0,1-3,5.42,18.81,18.81,0,0,1-2.15,2.3,23.23,23.23,0,0,1-38.87,6.06,23.22,23.22,0,1,0,44-13.78Z"></path><path class="cls-5" d="M18.8,50.52a23.22,23.22,0,0,0,35.75-9A19.24,19.24,0,0,1,22.41,26.35a24,24,0,0,0-2.14,2.34,23.18,23.18,0,0,0-4.59,18.85A23.23,23.23,0,0,0,18.8,50.52Z"></path><path class="cls-6" d="M18.8,50.52a23.22,23.22,0,0,0,35.75-9A19.24,19.24,0,0,1,22.41,26.35a24,24,0,0,0-2.14,2.34,23.18,23.18,0,0,0-4.59,18.85A23.23,23.23,0,0,0,18.8,50.52Z"></path><path class="cls-7" d="M56,27.89a23.19,23.19,0,0,1,3.72,5.87A19.24,19.24,0,0,0,35,9.17,23.24,23.24,0,0,1,56,27.89Z"></path><path class="cls-5" d="M26.55,15.29a19.13,19.13,0,0,0-4.14,11.06,23.22,23.22,0,0,1,30.48-1.44,23.79,23.79,0,0,1,3.11,3A23.24,23.24,0,0,0,35,9.17,19.1,19.1,0,0,0,26.55,15.29Z"></path><path class="cls-8" d="M26.55,15.29a19.13,19.13,0,0,0-4.14,11.06,23.22,23.22,0,0,1,30.48-1.44,23.79,23.79,0,0,1,3.11,3A23.24,23.24,0,0,0,35,9.17,19.1,19.1,0,0,0,26.55,15.29Z"></path><path class="cls-4" d="M54.55,41.48a18.81,18.81,0,0,0,2.15-2.3,19.25,19.25,0,0,0,3-5.42A23.19,23.19,0,0,0,56,27.89,23.22,23.22,0,0,1,54.55,41.48Z"></path><path class="cls-9" d="M54.55,41.48a18.81,18.81,0,0,0,2.15-2.3,19.25,19.25,0,0,0,3-5.42A23.19,23.19,0,0,0,56,27.89,23.22,23.22,0,0,1,54.55,41.48Z"></path><path class="cls-5" d="M56,27.89a23.79,23.79,0,0,0-3.11-3,23.22,23.22,0,0,0-30.48,1.44A19.24,19.24,0,0,0,54.55,41.48,23.22,23.22,0,0,0,56,27.89Z"></path><path class="cls-4" d="M56,27.89a23.79,23.79,0,0,0-3.11-3,23.22,23.22,0,0,0-30.48,1.44A19.24,19.24,0,0,0,54.55,41.48,23.22,23.22,0,0,0,56,27.89Z"></path><path class="cls-2" d="M56,27.89a23.79,23.79,0,0,0-3.11-3,23.22,23.22,0,0,0-30.48,1.44A19.24,19.24,0,0,0,54.55,41.48,23.22,23.22,0,0,0,56,27.89Z"></path><path class="cls-1" d="M47.35,21.16a9.67,9.67,0,0,1,5.08-1.44V14.43l-.75,0-.2,0-.54,0-.25,0-.48.06-.27,0-.45.08-.28.06-.42.1-.28.07-.41.12-.29.09-.39.13-.28.1-.38.15-.28.12-.37.17-.28.13-.35.18-.27.14-.35.2-.26.15-.36.23L44,17l-.55.4-.2.15c-.12.09-.24.18-.35.28l-.23.19A15.13,15.13,0,0,0,39,22.81a9.7,9.7,0,1,1-2.59-.08,18,18,0,0,1,4.68-4.89A14.75,14.75,0,0,0,35,17.59a15,15,0,0,0,2.45,29.84,14.91,14.91,0,0,0,9.2-3.16,9.67,9.67,0,0,1,.53,3.41A9.74,9.74,0,0,1,27.9,49.55a2.66,2.66,0,0,0-2.59-2.12h0a2.65,2.65,0,0,0-2.58,3.23A15,15,0,1,0,50.41,39.92a15,15,0,0,0-3.06-18.76Z"></path><path class="cls-1" d="M163.68,26.33a14.59,14.59,0,0,0-3.21-4.7,15.61,15.61,0,0,0-4.7-3.12,13.7,13.7,0,0,0-4.19-1.08v3a11.13,11.13,0,0,1,3.1.84A12,12,0,0,1,161,27.54a11.6,11.6,0,0,1,0,9.15A12,12,0,0,1,154.68,43a11.49,11.49,0,0,1-9.15,0,12,12,0,0,1-6.29-6.29,11.49,11.49,0,0,1,0-9.15,12,12,0,0,1,6.29-6.29,11,11,0,0,1,1.91-.63,1.51,1.51,0,0,0,1.19-1.46h0a1.5,1.5,0,0,0-1.82-1.46,13.72,13.72,0,0,0-2.52.81,14.76,14.76,0,0,0,5.81,28.37,14.22,14.22,0,0,0,5.67-1.15,15.64,15.64,0,0,0,4.7-3.13,14.68,14.68,0,0,0,3.21-4.67,14.84,14.84,0,0,0,0-11.6Z"></path><polygon class="cls-2" points="165.74 46.88 165.74 45.63 168.69 42.71 168.69 46.88 165.74 46.88"></polygon><text class="cls-10" transform="translate(172.5 46.88)">fm</text></svg> 